<svg width="101" height="100" viewBox="0 0 101 100" fill="none" xmlns="http://www.w3.org/2000/svg">
<g clip-path="url(#clip0_5_2)">
<mask id="mask0_5_2" style="mask-type:luminance" maskUnits="userSpaceOnUse" x="0" y="0" width="101" height="100">
<path d="M100.014 0H0V99.8209H100.014V0Z" fill="white"/>
</mask>
<g mask="url(#mask0_5_2)">
<path d="M29.9486 70.7655C31.7511 72.2997 34.0379 73.052 36.3393 73.052C39.1025 73.052 41.8808 71.9647 43.8246 69.8491C47.4743 66.0282 47.4816 59.6528 43.8395 55.9212C42.402 54.4463 40.4729 53.4559 38.5514 53.1875C37.7319 53.076 36.9127 53.046 36.0339 53.0087C34.7229 52.9568 33.3675 52.9045 32.0042 52.5545C29.7178 51.9737 27.5727 50.8638 25.8075 49.3593L25.584 49.1655C21.994 45.9853 20.9661 41.926 20.3926 38.0155C19.901 34.6864 18.3295 30.3887 13.5924 28.8096C12.6241 28.4819 11.6037 28.3181 10.5535 28.3181C7.68596 28.3181 4.95248 29.5322 3.05319 31.6401C0.289898 34.4853 -0.581543 38.8051 0.8932 42.3802C2.78504 46.9983 7.17949 48.2867 10.5312 48.5548C14.4713 48.8678 18.5901 49.6274 21.994 52.994L22.2025 53.2099C23.8188 54.8709 25.0626 56.9342 25.8 59.1833C26.2394 60.524 26.381 61.8647 26.515 63.183C26.6044 64.0471 26.6938 64.8664 26.8577 65.6782C27.2449 67.5777 28.3695 69.4395 29.9336 70.7729L29.9486 70.7655Z" fill="#FEFEFE"/>
<path d="M29.9486 70.7655C31.7511 72.2997 34.0379 73.052 36.3393 73.052C39.1025 73.052 41.8808 71.9647 43.8246 69.8491C47.4743 66.0282 47.4816 59.6528 43.8395 55.9212C42.402 54.4463 40.4729 53.4559 38.5514 53.1875C37.7319 53.076 36.9127 53.046 36.0339 53.0087C34.7229 52.9568 33.3675 52.9045 32.0042 52.5545C29.7178 51.9737 27.5727 50.8638 25.8075 49.3593L25.584 49.1655C21.994 45.9853 20.9661 41.926 20.3926 38.0155C19.901 34.6864 18.3295 30.3887 13.5924 28.8096C12.6241 28.4819 11.6037 28.3181 10.5535 28.3181C7.68596 28.3181 4.95248 29.5322 3.05319 31.6401C0.289898 34.4853 -0.581543 38.8051 0.8932 42.3802C2.78504 46.9983 7.17949 48.2867 10.5312 48.5548C14.4713 48.8678 18.5901 49.6274 21.994 52.994L22.2025 53.2099C23.8188 54.8709 25.0626 56.9342 25.8 59.1833C26.2394 60.524 26.381 61.8647 26.515 63.183C26.6044 64.0471 26.6938 64.8664 26.8577 65.6782C27.2449 67.5777 28.3695 69.4395 29.9336 70.7729L29.9486 70.7655Z" fill="#80D5DC"/>
<path d="M10.1075 53.2062C9.77975 53.2062 9.44458 53.2209 9.13178 53.2582H9.06472C5.9365 53.3997 3.84353 55.0757 2.63693 56.4534C0.797225 58.5613 -0.193387 61.4438 0.0449559 63.9763C0.283299 66.5308 1.64632 68.9963 3.76907 70.7392C5.57898 72.2288 7.78365 73.0407 9.92127 73.0407C10.2043 73.0407 10.4799 73.0257 10.7629 72.996C13.5113 72.713 15.9543 71.402 17.6525 69.2943C19.3656 67.1641 20.1328 64.4528 19.8125 61.6522C19.2762 56.9898 14.9265 53.1912 10.1149 53.1912L10.1075 53.2062Z" fill="#80D5DC"/>
<path d="M63.4218 73.2905C64.2856 73.2009 65.1051 73.1116 65.917 72.9478C67.8161 72.5605 69.6783 71.4359 71.0116 69.8718C74.4003 65.9091 73.9757 59.5484 70.0952 55.9955L70.0059 55.9136C66.2073 52.3385 59.8689 52.3684 56.1596 55.9808C54.685 57.4184 53.6944 59.3472 53.4263 61.269C53.3144 62.0958 53.2848 62.915 53.2475 63.7865C53.1955 65.0975 53.1432 66.4529 52.7932 67.8235C52.2122 70.1099 51.1023 72.2551 49.5977 74.0204L49.3969 74.2438C46.2164 77.8263 42.1647 78.8543 38.2469 79.4277C34.9175 79.9193 30.6198 81.4984 29.0333 86.228C27.8044 89.8998 28.9441 94.1379 31.8636 96.7673L31.9605 96.8639C33.8523 98.6738 36.3997 99.6421 38.9469 99.6421C40.1907 99.6421 41.4347 99.4114 42.604 98.9345C47.2218 97.0427 48.5105 92.6484 48.7785 89.2967C49.0915 85.3566 49.8511 81.2376 53.2178 77.8263L53.4263 77.6179C55.0946 75.9941 57.1579 74.7503 59.3997 74.0204C60.7404 73.5809 62.0884 73.4393 63.3918 73.3054L63.4218 73.2905Z" fill="#FEFEFE"/>
<path d="M63.4218 73.2905C64.2856 73.2009 65.1051 73.1116 65.917 72.9478C67.8161 72.5605 69.6783 71.4359 71.0116 69.8718C74.4003 65.9091 73.9757 59.5484 70.0952 55.9955L70.0059 55.9136C66.2073 52.3385 59.8689 52.3684 56.1596 55.9808C54.685 57.4184 53.6944 59.3472 53.4263 61.269C53.3144 62.0958 53.2848 62.915 53.2475 63.7865C53.1955 65.0975 53.1432 66.4529 52.7932 67.8235C52.2122 70.1099 51.1023 72.2551 49.5977 74.0204L49.3969 74.2438C46.2164 77.8263 42.1647 78.8543 38.2469 79.4277C34.9175 79.9193 30.6198 81.4984 29.0333 86.228C27.8044 89.8998 28.9441 94.1379 31.8636 96.7673L31.9605 96.8639C33.8523 98.6738 36.3997 99.6421 38.9469 99.6421C40.1907 99.6421 41.4347 99.4114 42.604 98.9345C47.2218 97.0427 48.5105 92.6484 48.7785 89.2967C49.0915 85.3566 49.8511 81.2376 53.2178 77.8263L53.4263 77.6179C55.0946 75.9941 57.1579 74.7503 59.3997 74.0204C60.7404 73.5809 62.0884 73.4393 63.3918 73.3054L63.4218 73.2905Z" fill="#80D5DC"/>
<path d="M69.5621 82.1909C67.7449 80.7311 65.5328 79.9565 63.1568 79.9565C62.7472 79.9565 62.3299 79.9788 61.9203 80.0234C56.878 80.6045 52.9525 85.5949 53.5186 90.6969V90.7638C53.6602 93.8921 55.3362 95.985 56.7141 97.1915C58.6133 98.8525 61.1531 99.8209 63.4918 99.8209C63.7452 99.8209 63.9983 99.8059 64.2441 99.7836C66.7989 99.5452 69.2641 98.1822 71.0071 96.0596C72.6904 94.0113 73.5096 91.4638 73.2638 89.0732C72.9808 86.3246 71.6701 83.8816 69.5621 82.1836V82.1909Z" fill="#80D5DC"/>
<path d="M89.4751 52.9681C85.535 52.6554 81.4161 51.8955 78.0124 48.5291L77.8037 48.3203C76.1799 46.652 74.9362 44.589 74.2062 42.3469C73.767 41.0062 73.6254 39.6582 73.4839 38.3249C73.3944 37.4684 73.3051 36.6565 73.1412 35.8523C72.754 33.9528 71.6291 32.0907 70.065 30.7576C68.337 29.2828 66.0655 28.4635 63.6746 28.4635C60.7847 28.4635 58.0585 29.6329 56.189 31.6737C52.5395 35.4946 52.5319 41.8703 56.1743 45.6017C57.6116 47.0766 59.5407 48.0672 61.4624 48.3353C62.2816 48.4472 63.1011 48.4768 63.9799 48.5141C65.2907 48.5661 66.6463 48.6184 68.0093 48.9684C70.296 49.5494 72.441 50.659 74.2062 52.1636L74.4297 52.3573C78.0198 55.5379 79.0477 59.5969 79.6212 63.5073C80.1127 66.8367 81.6918 71.1342 86.4215 72.7133C87.4045 73.041 88.4325 73.2048 89.4602 73.2048C92.2534 73.2048 95.039 72.0206 96.9605 69.883L97.035 69.8085C99.7463 66.9856 100.588 62.7028 99.128 59.1427C97.2362 54.5249 92.8418 53.2362 89.4901 52.9681H89.4751Z" fill="#80D5DC"/>
<path d="M89.9065 48.3093C90.2342 48.3093 90.5619 48.2943 90.8895 48.2573H90.9568C94.085 48.1158 96.178 46.4398 97.3845 45.0619C99.2243 42.9542 100.215 40.0717 99.9766 37.5393C99.7381 34.9845 98.3751 32.5192 96.2523 30.7763C94.4424 29.2941 92.2602 28.4748 90.1 28.4748C89.8172 28.4748 89.5342 28.4897 89.2585 28.5195C86.5102 28.8025 84.067 30.1134 82.3689 32.2212C80.6559 34.3514 79.8887 37.0627 80.209 39.863C80.7525 44.5777 85.1472 48.3243 89.8992 48.3243L89.9065 48.3093Z" fill="#80D5DC"/>
<path d="M38.7568 26.5305C37.8927 26.6199 37.0735 26.7093 36.2616 26.8731C34.3622 27.2604 32.5003 28.3851 31.167 29.9492C27.7781 33.9116 28.2026 40.2723 32.0831 43.8252C33.9975 45.65 36.552 46.5661 39.0994 46.5661C41.6316 46.5661 44.1568 45.6577 46.0187 43.8401C47.4935 42.4026 48.4842 40.4735 48.7523 38.552C48.8639 37.7252 48.8938 36.906 48.9311 36.0269C48.9831 34.7161 49.0353 33.3681 49.3853 32.0048C49.9664 29.7184 51.076 27.5733 52.5805 25.808L52.7743 25.5846C55.9545 21.9946 60.0138 20.9667 63.9243 20.3932C67.2537 19.9016 71.5511 18.3226 73.1302 13.593C74.3144 10.0477 73.3314 6.02562 70.6127 3.35172L70.2031 2.9644C68.3486 1.19918 65.8011 0.178772 63.2167 0.178772C61.9429 0.178772 60.7065 0.417115 59.5596 0.886352C54.9418 2.7782 53.6531 7.17265 53.385 10.5243C53.0723 14.4644 52.3124 18.5833 48.9458 21.9946L48.7373 22.2031C47.0689 23.8268 45.0057 25.0707 42.7638 25.8006C41.4232 26.2401 40.0751 26.3815 38.7718 26.5231L38.7568 26.5305Z" fill="#80D5DC"/>
<path d="M32.6158 17.6374C34.4331 19.0972 36.6675 19.8718 39.0212 19.8718C39.4308 19.8718 39.8407 19.8495 40.2576 19.7973C45.3 19.2164 49.2254 14.2261 48.6593 9.12405V9.04956C48.5178 5.92134 46.8418 3.82837 45.4638 2.62177C43.572 0.975717 41.0472 -0.00744629 38.6935 -0.00744629C38.4404 -0.00744629 38.187 0.00745012 37.9412 0.0297949C35.3864 0.268137 32.9212 1.63116 31.1783 3.75391C29.495 5.80216 28.6757 8.34944 28.9215 10.7403C29.2045 13.4887 30.5154 15.9317 32.6232 17.6299L32.6158 17.6374Z" fill="#80D5DC"/>
</g>
</g>
<defs>
<clipPath id="clip0_5_2">
<rect width="100.282" height="100" fill="white"/>
</clipPath>
</defs>
</svg>
