mtllib basic head mesh.mtl
o Plane011
usemtl material8
v -0.21800124645233154 2.6956901401281357 -0.9357386827468872
v -0.21800124645233154 2.6956900879740715 -0.7584872245788574
v 0.24722254276275635 3.4839678406715393 -0.7584872245788574
v 0.24722254276275635 3.4839677810668945 -0.9357386827468872
v 0.1758413314819336 3.7665646076202393 -0.5703071653842926
v 0.1758413314819336 3.7665646076202393 -0.9357386827468872
v 0.24722254276275635 3.4839677810668945 -0.9357386827468872
v 0.24722254276275635 3.4839678406715393 -0.7584872245788574
v 0.5571131706237793 4.7502055168151855 -0.4356289505958557
v 0.5571132004261017 4.796581983566284 -0.9357386827468872
v 0.1758413314819336 3.7665646076202393 -0.9357386827468872
v 0.1758413314819336 3.7665646076202393 -0.5703071653842926
v -0.21800124645233154 2.6956901401281357 -0.9357386827468872
v -0.08229935169219971 2.4535865634679794 -0.9357386827468872
v -0.21800124645233154 2.6956900879740715 -0.7584872245788574
v 0.15684235095977783 2.3816330432891846 -0.9357386827468872
v 0.12118935585021973 2.3930146545171738 -0.781991645693779
v -0.08229935169219971 2.4535865634679794 -0.9357386827468872
v -0.21800124645233154 2.6956900879740715 -0.7584872245788574
v -0.08229935169219971 2.4535865634679794 -0.9357386827468872
v 0.12118935585021973 2.3930146545171738 -0.781991645693779
v 0.2771477699279785 2.5720675587654114 -0.5742641091346741
v 0.2771477699279785 2.5720675587654114 -0.5742641091346741
v 0.4133347272872925 3.346080958843231 -0.6002329289913177
v 0.24722254276275635 3.4839678406715393 -0.7584872245788574
v -0.21800124645233154 2.6956900879740715 -0.7584872245788574
v 0.1758413314819336 3.7665646076202393 -0.5703071653842926
v 0.24722254276275635 3.4839678406715393 -0.7584872245788574
v 0.4133347272872925 3.346080958843231 -0.6002329289913177
v 0.9376129508018494 3.271616518497467 0.27873694896698
v 0.6284237802028656 3.656252861022949 0.06103527545928955
v 0.2771477699279785 2.5720675587654114 -0.5742641091346741
v 0.7366165220737457 2.6881560385227203 0.12865078449249268
v 0.9376129508018494 3.271616518497467 0.27873694896698
v 0.4133347272872925 3.346080958843231 -0.6002329289913177
v 0.04104208946228027 2.1756978034973145 -0.9357386827468872
v 0.02772688865661621 2.2302424013614655 -0.7297405302524567
v 0.12118935585021973 2.3930146545171738 -0.781991645693779
v 0.15684235095977783 2.3816330432891846 -0.9357386827468872
v 0.12810850143432617 2.043643593788147 -0.9357386827468872
v 0.12810850143432617 2.043643593788147 -0.7214602380990982
v 0.02772688865661621 2.2302424013614655 -0.7297405302524567
v 0.04104208946228027 2.1756978034973145 -0.9357386827468872
v 0.04894721508026123 1.8980389833450317 -0.9357386827468872
v 0.04894721508026123 1.8980389833450317 -0.749323844909668
v 0.12810850143432617 2.043643593788147 -0.7214602380990982
v 0.12810850143432617 2.043643593788147 -0.9357386827468872
v 0.12810850143432617 2.043643593788147 -0.7214602380990982
v 0.3870394825935364 1.9397016167640686 -0.42911362648010254
v 0.02772688865661621 2.2302424013614655 -0.7297405302524567
v 0.04894721508026123 1.8980389833450317 -0.749323844909668
v 0.3870394825935364 1.9397016167640686 -0.42911362648010254
v 0.12810850143432617 2.043643593788147 -0.7214602380990982
v 0.2771477699279785 2.5720675587654114 -0.5742641091346741
v 0.12118935585021973 2.3930146545171738 -0.781991645693779
v 0.02772688865661621 2.2302424013614655 -0.7297405302524567
v 0.3870394825935364 1.9397016167640686 -0.42911362648010254
v 0.7366165220737457 2.6881560385227203 0.12865078449249268
v 0.2771477699279785 2.5720675587654114 -0.5742641091346741
v 0.3870394825935364 1.9397016167640686 -0.42911362648010254
v 0.5737239420413971 2.0283507108688354 -0.13409441709518433
v 0.2046920657157898 1.7199651002883911 -0.9357386827468872
v 0.2046920657157898 1.7199651002883911 -0.7662040144205093
v 0.04894721508026123 1.8980389833450317 -0.749323844909668
v 0.04894721508026123 1.8980389833450317 -0.9357386827468872
v 0.3870394825935364 1.9397016167640686 -0.42911362648010254
v 0.04894721508026123 1.8980389833450317 -0.749323844909668
v 0.2046920657157898 1.7199651002883911 -0.7662040144205093
v 0.16956746578216553 1.3064664602279663 -0.9357386827468872
v 0.16956746578216553 1.3064664602279663 -0.7618648409843445
v 0.2046920657157898 1.7199651002883911 -0.7662040144205093
v 0.2046920657157898 1.7199651002883911 -0.9357386827468872
v 0.16956746578216553 1.3064664602279663 -0.7618648409843445
v 0.41617751121520996 1.2825756072998047 -0.563987523317337
v 0.2046920657157898 1.7199651002883911 -0.7662040144205093
v 0.5737239420413971 2.0283507108688354 -0.13409441709518433
v 0.3870394825935364 1.9397016167640686 -0.42911362648010254
v 0.2046920657157898 1.7199651002883911 -0.7662040144205093
v 0.41617751121520996 1.2825756072998047 -0.563987523317337
v 0.5571131706237793 4.7502055168151855 -0.4356289505958557
v 0.1758413314819336 3.7665646076202393 -0.5703071653842926
v 0.6284237802028656 3.656252861022949 0.06103527545928955
v 0.9441518932580948 4.451413631439209 0.18563449382781982
v 1.914599359035492 5.2337646484375 -0.24963980913162231
v 1.914599359035492 5.297883987426758 -0.9357386827468872
v 0.5571132004261017 4.796581983566284 -0.9357386827468872
v 0.5571131706237793 4.7502055168151855 -0.4356289505958557
v 0.9441518932580948 4.451413631439209 0.18563449382781982
v 2.0497992038726807 4.858454465866089 0.31985926628112793
v 1.914599359035492 5.2337646484375 -0.24963980913162231
v 0.5571131706237793 4.7502055168151855 -0.4356289505958557
v 0.9376129508018494 3.271616518497467 0.27873694896698
v 2.027069926261902 3.2581781148910522 0.415044903755188
v 2.0497992038726807 4.858454465866089 0.31985926628112793
v 0.9441518932580948 4.451413631439209 0.18563449382781982
v 0.6284237802028656 3.656252861022949 0.06103527545928955
v 1.2365342378616333 1.688961684703827 -0.06838983297348022
v 0.5737239420413971 2.0283507108688354 -0.13409441709518433
v 0.41617751121520996 1.2825756072998047 -0.563987523317337
v 0.7467524409294128 1.316809058189392 -0.4038134217262268
v 1.4934654235839844 2.1707295775413513 0.21576833724975586
v 0.7366165220737457 2.6881560385227203 0.12865078449249268
v 0.5737239420413971 2.0283507108688354 -0.13409441709518433
v 1.2365342378616333 1.688961684703827 -0.06838983297348022
v 0.7366165220737457 2.6881560385227203 0.12865078449249268
v 1.4934654235839844 2.1707295775413513 0.21576833724975586
v 2.027069926261902 3.2581781148910522 0.415044903755188
v 0.9376129508018494 3.271616518497467 0.27873694896698
v 0.16956746578216553 1.3064664602279663 -0.7618648409843445
v 0.16956746578216553 1.3064664602279663 -0.9357386827468872
v 0.34370940923690796 1.1968618631362915 -0.9357386827468872
v 0.34370940923690796 1.1968618631362915 -0.801012396812439
v 0.41617751121520996 1.2825756072998047 -0.563987523317337
v 0.16956746578216553 1.3064664602279663 -0.7618648409843445
v 0.34370940923690796 1.1968618631362915 -0.801012396812439
v 0.6346821188926697 1.1694117784500122 -0.9357386827468872
v 0.6406973004341125 1.1836186647415161 -0.7509198188781738
v 0.34370940923690796 1.1968618631362915 -0.801012396812439
v 0.34370940923690796 1.1968618631362915 -0.9357386827468872
v 0.7467524409294128 1.316809058189392 -0.4038134217262268
v 0.41617751121520996 1.2825756072998047 -0.563987523317337
v 0.34370940923690796 1.1968618631362915 -0.801012396812439
v 0.6406973004341125 1.1836186647415161 -0.7509198188781738
v 3.323968768119812 4.58497941493988 -0.5475457012653351
v 3.3832024335861206 4.654443740844727 -0.9357386827468872
v 1.914599359035492 5.297883987426758 -0.9357386827468872
v 1.914599359035492 5.2337646484375 -0.24963980913162231
v 2.0497992038726807 4.858454465866089 0.31985926628112793
v 3.3173166513442993 4.288444519042969 -0.23774147033691406
v 3.323968768119812 4.58497941493988 -0.5475457012653351
v 1.914599359035492 5.2337646484375 -0.24963980913162231
v 2.027069926261902 3.2581781148910522 0.415044903755188
v 3.3173166513442993 4.288444519042969 -0.23774147033691406
v 2.0497992038726807 4.858454465866089 0.31985926628112793
v 3.3173166513442993 4.288444519042969 -0.23774147033691406
v 2.027069926261902 3.2581781148910522 0.415044903755188
v 3.4323867559432983 3.3008434176445007 -0.23774147033691406
v 2.027069926261902 3.2581781148910522 0.415044903755188
v 2.4627290964126587 2.4609313309192657 -0.15204954147338867
v 3.029537320137024 2.570732168853283 -0.23774147033691406
v 3.4323867559432983 3.3008434176445007 -0.23774147033691406
v 1.4934654235839844 2.1707295775413513 0.21576833724975586
v 1.8953429460525513 2.0594244599342346 -0.009776175022125244
v 2.4627290964126587 2.4609313309192657 -0.15204954147338867
v 2.027069926261902 3.2581781148910522 0.415044903755188
v 1.7516131401062012 1.7402966618537903 -0.1083182692527771
v 1.8953429460525513 2.0594244599342346 -0.009776175022125244
v 1.4934654235839844 2.1707295775413513 0.21576833724975586
v 1.2365342378616333 1.688961684703827 -0.06838983297348022
v 1.4340061843395233 1.3993180990219116 -0.44602829217910767
v 1.7516131401062012 1.7402966618537903 -0.1083182692527771
v 1.2365342378616333 1.688961684703827 -0.06838983297348022
v 0.7467524409294128 1.316809058189392 -0.4038134217262268
v 1.3016221225261688 1.310813069343567 -0.9357386827468872
v 1.3016221225261688 1.315026879310608 -0.6420931816101074
v 0.6406973004341125 1.1836186647415161 -0.7509198188781738
v 0.6346821188926697 1.1694117784500122 -0.9357386827468872
v 0.6406973004341125 1.1836186647415161 -0.7509198188781738
v 1.3016221225261688 1.315026879310608 -0.6420931816101074
v 1.4340061843395233 1.3993180990219116 -0.44602829217910767
v 0.7467524409294128 1.316809058189392 -0.4038134217262268
v 3.672686457633972 3.33318692445755 -0.9357386827468872
v 3.3832024335861206 4.654443740844727 -0.9357386827468872
v 3.323968768119812 4.58497941493988 -0.5475457012653351
v 3.3173166513442993 4.288444519042969 -0.23774147033691406
v 3.4323867559432983 3.3008434176445007 -0.23774147033691406
v 3.3257912397384644 2.394128441810608 -0.9357386827468872
v 3.672686457633972 3.33318692445755 -0.9357386827468872
v 3.4323867559432983 3.3008434176445007 -0.23774147033691406
v 3.029537320137024 2.570732168853283 -0.23774147033691406
v 3.3257912397384644 2.394128441810608 -0.9357386827468872
v 3.029537320137024 2.570732168853283 -0.23774147033691406
v 3.4109333753585815 1.5225039720535278 -0.15562182664871216
v 3.742533564567566 1.339256763458252 -0.9357386827468872
v 1.4340061843395233 1.3993180990219116 -0.44602829217910767
v 1.3016221225261688 1.315026879310608 -0.6420931816101074
v 1.6367267966270447 0.05217432975769043 -0.6150805950164795
v 1.7532495856285095 0.2357316017150879 -0.4098765254020691
v 1.3016221225261688 1.315026879310608 -0.6420931816101074
v 1.3016221225261688 1.310813069343567 -0.9357386827468872
v 1.6305071115493774 0.05217432975769043 -0.9357386827468872
v 1.6367267966270447 0.05217432975769043 -0.6150805950164795
v 1.7516131401062012 1.7402966618537903 -0.1083182692527771
v 1.4340061843395233 1.3993180990219116 -0.44602829217910767
v 1.7532495856285095 0.2357316017150879 -0.4098765254020691
v 2.107348322868347 0.5618071556091309 -0.03556191921234131
v 1.8953429460525513 2.0594244599342346 -0.009776175022125244
v 1.7516131401062012 1.7402966618537903 -0.1083182692527771
v 2.107348322868347 0.5618071556091309 -0.03556191921234131
v 2.2735888957977295 1.0095785856246948 0.0762556791305542
v 2.4627290964126587 2.4609313309192657 -0.15204954147338867
v 1.8953429460525513 2.0594244599342346 -0.009776175022125244
v 2.2735888957977295 1.0095785856246948 0.0762556791305542
v 2.845206141471863 1.406059741973877 -0.06577777862548828
v 3.029537320137024 2.570732168853283 -0.23774147033691406
v 2.4627290964126587 2.4609313309192657 -0.15204954147338867
v 2.845206141471863 1.406059741973877 -0.06577777862548828
v 3.4109333753585815 1.5225039720535278 -0.15562182664871216
v -0.21800124645233154 2.6956901401281357 -0.9357386827468872
v 0.24722254276275635 3.4839677810668945 -0.9357386827468872
v 0.24722254276275635 3.4839678406715393 -1.112990140914917
v -0.21800124645233154 2.6956900879740715 -1.112990140914917
v 0.1758413314819336 3.7665646076202393 -1.3011702001094818
v 0.24722254276275635 3.4839678406715393 -1.112990140914917
v 0.24722254276275635 3.4839677810668945 -0.9357386827468872
v 0.1758413314819336 3.7665646076202393 -0.9357386827468872
v 0.5571131706237793 4.7502055168151855 -1.4358484148979187
v 0.1758413314819336 3.7665646076202393 -1.3011702001094818
v 0.1758413314819336 3.7665646076202393 -0.9357386827468872
v 0.5571132004261017 4.796581983566284 -0.9357386827468872
v -0.21800124645233154 2.6956901401281357 -0.9357386827468872
v -0.21800124645233154 2.6956900879740715 -1.112990140914917
v -0.08229935169219971 2.4535865634679794 -0.9357386827468872
v 0.15684235095977783 2.3816330432891846 -0.9357386827468872
v -0.08229935169219971 2.4535865634679794 -0.9357386827468872
v 0.12118935585021973 2.3930146545171738 -1.0894857197999954
v -0.21800124645233154 2.6956900879740715 -1.112990140914917
v 0.2771477699279785 2.5720675587654114 -1.2972132563591003
v 0.12118935585021973 2.3930146545171738 -1.0894857197999954
v -0.08229935169219971 2.4535865634679794 -0.9357386827468872
v 0.2771477699279785 2.5720675587654114 -1.2972132563591003
v -0.21800124645233154 2.6956900879740715 -1.112990140914917
v 0.24722254276275635 3.4839678406715393 -1.112990140914917
v 0.4133347272872925 3.346080958843231 -1.2712444365024567
v 0.1758413314819336 3.7665646076202393 -1.3011702001094818
v 0.6284237802028656 3.656252861022949 -1.932512640953064
v 0.9376129508018494 3.271616518497467 -2.1502143144607544
v 0.4133347272872925 3.346080958843231 -1.2712444365024567
v 0.24722254276275635 3.4839678406715393 -1.112990140914917
v 0.2771477699279785 2.5720675587654114 -1.2972132563591003
v 0.4133347272872925 3.346080958843231 -1.2712444365024567
v 0.9376129508018494 3.271616518497467 -2.1502143144607544
v 0.7366165220737457 2.6881560385227203 -2.000128149986267
v 0.04104208946228027 2.1756978034973145 -0.9357386827468872
v 0.15684235095977783 2.3816330432891846 -0.9357386827468872
v 0.12118935585021973 2.3930146545171738 -1.0894857197999954
v 0.02772688865661621 2.2302424013614655 -1.1417368352413177
v 0.12810850143432617 2.043643593788147 -0.9357386827468872
v 0.04104208946228027 2.1756978034973145 -0.9357386827468872
v 0.02772688865661621 2.2302424013614655 -1.1417368352413177
v 0.12810850143432617 2.043643593788147 -1.1500171273946762
v 0.04894721508026123 1.8980389833450317 -0.9357386827468872
v 0.12810850143432617 2.043643593788147 -0.9357386827468872
v 0.12810850143432617 2.043643593788147 -1.1500171273946762
v 0.04894721508026123 1.8980389833450317 -1.1221535205841064
v 0.12810850143432617 2.043643593788147 -1.1500171273946762
v 0.02772688865661621 2.2302424013614655 -1.1417368352413177
v 0.3870394825935364 1.9397016167640686 -1.4423637390136719
v 0.04894721508026123 1.8980389833450317 -1.1221535205841064
v 0.12810850143432617 2.043643593788147 -1.1500171273946762
v 0.3870394825935364 1.9397016167640686 -1.4423637390136719
v 0.2771477699279785 2.5720675587654114 -1.2972132563591003
v 0.3870394825935364 1.9397016167640686 -1.4423637390136719
v 0.02772688865661621 2.2302424013614655 -1.1417368352413177
v 0.12118935585021973 2.3930146545171738 -1.0894857197999954
v 0.7366165220737457 2.6881560385227203 -2.000128149986267
v 0.5737239420413971 2.0283507108688354 -1.73738294839859
v 0.3870394825935364 1.9397016167640686 -1.4423637390136719
v 0.2771477699279785 2.5720675587654114 -1.2972132563591003
v 0.2046920657157898 1.7199651002883911 -0.9357386827468872
v 0.04894721508026123 1.8980389833450317 -0.9357386827468872
v 0.04894721508026123 1.8980389833450317 -1.1221535205841064
v 0.2046920657157898 1.7199651002883911 -1.105273351073265
v 0.3870394825935364 1.9397016167640686 -1.4423637390136719
v 0.2046920657157898 1.7199651002883911 -1.105273351073265
v 0.04894721508026123 1.8980389833450317 -1.1221535205841064
v 0.16956746578216553 1.3064664602279663 -0.9357386827468872
v 0.2046920657157898 1.7199651002883911 -0.9357386827468872
v 0.2046920657157898 1.7199651002883911 -1.105273351073265
v 0.16956746578216553 1.3064664602279663 -1.10961252450943
v 0.16956746578216553 1.3064664602279663 -1.10961252450943
v 0.2046920657157898 1.7199651002883911 -1.105273351073265
v 0.41617751121520996 1.2825756072998047 -1.3074898421764374
v 0.5737239420413971 2.0283507108688354 -1.73738294839859
v 0.41617751121520996 1.2825756072998047 -1.3074898421764374
v 0.2046920657157898 1.7199651002883911 -1.105273351073265
v 0.3870394825935364 1.9397016167640686 -1.4423637390136719
v 0.5571131706237793 4.7502055168151855 -1.4358484148979187
v 0.9441518932580948 4.451413631439209 -2.0571118593215942
v 0.6284237802028656 3.656252861022949 -1.932512640953064
v 0.1758413314819336 3.7665646076202393 -1.3011702001094818
v 1.914599359035492 5.2337646484375 -1.621837556362152
v 0.5571131706237793 4.7502055168151855 -1.4358484148979187
v 0.5571132004261017 4.796581983566284 -0.9357386827468872
v 1.914599359035492 5.297883987426758 -0.9357386827468872
v 0.9441518932580948 4.451413631439209 -2.0571118593215942
v 0.5571131706237793 4.7502055168151855 -1.4358484148979187
v 1.914599359035492 5.2337646484375 -1.621837556362152
v 2.0497992038726807 4.858454465866089 -2.1913366317749023
v 0.9376129508018494 3.271616518497467 -2.1502143144607544
v 0.6284237802028656 3.656252861022949 -1.932512640953064
v 0.9441518932580948 4.451413631439209 -2.0571118593215942
v 2.0497992038726807 4.858454465866089 -2.1913366317749023
v 2.027069926261902 3.2581781148910522 -2.2865222692489624
v 1.2365342378616333 1.688961684703827 -1.8030875325202942
v 0.7467524409294128 1.316809058189392 -1.4676639437675476
v 0.41617751121520996 1.2825756072998047 -1.3074898421764374
v 0.5737239420413971 2.0283507108688354 -1.73738294839859
v 1.4934654235839844 2.1707295775413513 -2.0872457027435303
v 1.2365342378616333 1.688961684703827 -1.8030875325202942
v 0.5737239420413971 2.0283507108688354 -1.73738294839859
v 0.7366165220737457 2.6881560385227203 -2.000128149986267
v 0.7366165220737457 2.6881560385227203 -2.000128149986267
v 0.9376129508018494 3.271616518497467 -2.1502143144607544
v 2.027069926261902 3.2581781148910522 -2.2865222692489624
v 1.4934654235839844 2.1707295775413513 -2.0872457027435303
v 0.16956746578216553 1.3064664602279663 -1.10961252450943
v 0.34370940923690796 1.1968618631362915 -1.0704649686813354
v 0.34370940923690796 1.1968618631362915 -0.9357386827468872
v 0.16956746578216553 1.3064664602279663 -0.9357386827468872
v 0.41617751121520996 1.2825756072998047 -1.3074898421764374
v 0.34370940923690796 1.1968618631362915 -1.0704649686813354
v 0.16956746578216553 1.3064664602279663 -1.10961252450943
v 0.6346821188926697 1.1694117784500122 -0.9357386827468872
v 0.34370940923690796 1.1968618631362915 -0.9357386827468872
v 0.34370940923690796 1.1968618631362915 -1.0704649686813354
v 0.6406973004341125 1.1836186647415161 -1.1205575466156006
v 0.7467524409294128 1.316809058189392 -1.4676639437675476
v 0.6406973004341125 1.1836186647415161 -1.1205575466156006
v 0.34370940923690796 1.1968618631362915 -1.0704649686813354
v 0.41617751121520996 1.2825756072998047 -1.3074898421764374
v 3.323968768119812 4.58497941493988 -1.3239316642284393
v 1.914599359035492 5.2337646484375 -1.621837556362152
v 1.914599359035492 5.297883987426758 -0.9357386827468872
v 3.3832024335861206 4.654443740844727 -0.9357386827468872
v 2.0497992038726807 4.858454465866089 -2.1913366317749023
v 1.914599359035492 5.2337646484375 -1.621837556362152
v 3.323968768119812 4.58497941493988 -1.3239316642284393
v 3.3173166513442993 4.288444519042969 -1.6337358951568604
v 2.027069926261902 3.2581781148910522 -2.2865222692489624
v 2.0497992038726807 4.858454465866089 -2.1913366317749023
v 3.3173166513442993 4.288444519042969 -1.6337358951568604
v 3.3173166513442993 4.288444519042969 -1.6337358951568604
v 3.4323867559432983 3.3008434176445007 -1.6337358951568604
v 2.027069926261902 3.2581781148910522 -2.2865222692489624
v 2.027069926261902 3.2581781148910522 -2.2865222692489624
v 3.4323867559432983 3.3008434176445007 -1.6337358951568604
v 3.029537320137024 2.570732168853283 -1.6337358951568604
v 2.4627290964126587 2.4609313309192657 -1.7194278240203857
v 1.4934654235839844 2.1707295775413513 -2.0872457027435303
v 2.027069926261902 3.2581781148910522 -2.2865222692489624
v 2.4627290964126587 2.4609313309192657 -1.7194278240203857
v 1.8953429460525513 2.0594244599342346 -1.8617011904716492
v 1.7516131401062012 1.7402966618537903 -1.7631590962409973
v 1.2365342378616333 1.688961684703827 -1.8030875325202942
v 1.4934654235839844 2.1707295775413513 -2.0872457027435303
v 1.8953429460525513 2.0594244599342346 -1.8617011904716492
v 1.4340061843395233 1.3993180990219116 -1.4254490733146667
v 0.7467524409294128 1.316809058189392 -1.4676639437675476
v 1.2365342378616333 1.688961684703827 -1.8030875325202942
v 1.7516131401062012 1.7402966618537903 -1.7631590962409973
v 1.3016221225261688 1.310813069343567 -0.9357386827468872
v 0.6346821188926697 1.1694117784500122 -0.9357386827468872
v 0.6406973004341125 1.1836186647415161 -1.1205575466156006
v 1.3016221225261688 1.315026879310608 -1.229384183883667
v 0.6406973004341125 1.1836186647415161 -1.1205575466156006
v 0.7467524409294128 1.316809058189392 -1.4676639437675476
v 1.4340061843395233 1.3993180990219116 -1.4254490733146667
v 1.3016221225261688 1.315026879310608 -1.229384183883667
v 3.672686457633972 3.33318692445755 -0.9357386827468872
v 3.4323867559432983 3.3008434176445007 -1.6337358951568604
v 3.3173166513442993 4.288444519042969 -1.6337358951568604
v 3.323968768119812 4.58497941493988 -1.3239316642284393
v 3.3832024335861206 4.654443740844727 -0.9357386827468872
v 3.3257912397384644 2.394128441810608 -0.9357386827468872
v 3.029537320137024 2.570732168853283 -1.6337358951568604
v 3.4323867559432983 3.3008434176445007 -1.6337358951568604
v 3.672686457633972 3.33318692445755 -0.9357386827468872
v 3.3257912397384644 2.394128441810608 -0.9357386827468872
v 3.742533564567566 1.339256763458252 -0.9357386827468872
v 3.4109333753585815 1.5225039720535278 -1.7158555388450623
v 3.029537320137024 2.570732168853283 -1.6337358951568604
v 1.4340061843395233 1.3993180990219116 -1.4254490733146667
v 1.7532495856285095 0.2357316017150879 -1.4616008400917053
v 1.6367267966270447 0.05217432975769043 -1.256396770477295
v 1.3016221225261688 1.315026879310608 -1.229384183883667
v 1.3016221225261688 1.315026879310608 -1.229384183883667
v 1.6367267966270447 0.05217432975769043 -1.256396770477295
v 1.6305071115493774 0.05217432975769043 -0.9357386827468872
v 1.3016221225261688 1.310813069343567 -0.9357386827468872
v 1.7516131401062012 1.7402966618537903 -1.7631590962409973
v 2.107348322868347 0.5618071556091309 -1.835915446281433
v 1.7532495856285095 0.2357316017150879 -1.4616008400917053
v 1.4340061843395233 1.3993180990219116 -1.4254490733146667
v 1.8953429460525513 2.0594244599342346 -1.8617011904716492
v 2.2735888957977295 1.0095785856246948 -1.9477330446243286
v 2.107348322868347 0.5618071556091309 -1.835915446281433
v 1.7516131401062012 1.7402966618537903 -1.7631590962409973
v 2.4627290964126587 2.4609313309192657 -1.7194278240203857
v 2.845206141471863 1.406059741973877 -1.8056995868682861
v 2.2735888957977295 1.0095785856246948 -1.9477330446243286
v 1.8953429460525513 2.0594244599342346 -1.8617011904716492
v 3.029537320137024 2.570732168853283 -1.6337358951568604
v 3.4109333753585815 1.5225039720535278 -1.7158555388450623
v 2.845206141471863 1.406059741973877 -1.8056995868682861
v 2.4627290964126587 2.4609313309192657 -1.7194278240203857
vn -0.8612023657592273 0.5082622209162193 1.4954992025419712e-7
vn -0.8612023657592273 0.5082622209162193 1.4954992025419712e-7
vn -0.8612023657592273 0.5082622209162193 1.4954992025419712e-7
vn -0.8612023657592273 0.5082622209162193 1.4954992025419712e-7
vn -0.969548703762572 -0.2448985729487144 0
vn -0.969548703762572 -0.2448985729487144 0
vn -0.969548703762572 -0.2448985729487144 0
vn -0.969548703762572 -0.2448985729487144 0
vn -0.937327269338551 0.34696164860435885 0.032174594823879125
vn -0.937327269338551 0.34696164860435885 0.032174594823879125
vn -0.937327269338551 0.34696164860435885 0.032174594823879125
vn -0.937327269338551 0.34696164860435885 0.032174594823879125
vn -0.8723156460063674 -0.4889431600221784 -1.4386552051562644e-7
vn -0.8723156460063674 -0.4889431600221784 -1.4386552051562644e-7
vn -0.8723156460063674 -0.4889431600221784 -1.4386552051562644e-7
vn -0.28812057239453126 -0.9575854692619181 0.0040749014073922125
vn -0.28812057239453126 -0.9575854692619181 0.0040749014073922125
vn -0.28812057239453126 -0.9575854692619181 0.0040749014073922125
vn -0.5641814453796521 -0.6697412113636056 0.48285195090269306
vn -0.5641814453796521 -0.6697412113636056 0.48285195090269306
vn -0.5641814453796521 -0.6697412113636056 0.48285195090269306
vn -0.5641814453796521 -0.6697412113636056 0.48285195090269306
vn -0.6222242837402978 0.13534918698129988 0.7710496341399654
vn -0.6222242837402978 0.13534918698129988 0.7710496341399654
vn -0.6222242837402978 0.13534918698129988 0.7710496341399654
vn -0.6222242837402978 0.13534918698129988 0.7710496341399654
vn -0.7812936769504865 -0.4704738477525917 0.4101640512503019
vn -0.7812936769504865 -0.4704738477525917 0.4101640512503019
vn -0.7812936769504865 -0.4704738477525917 0.4101640512503019
vn -0.7812936769504865 -0.4704738477525917 0.4101640512503019
vn -0.7812936769504865 -0.4704738477525917 0.4101640512503019
vn -0.8384866776837866 0.15442401285579546 0.5225833097223052
vn -0.8384866776837866 0.15442401285579546 0.5225833097223052
vn -0.8384866776837866 0.15442401285579546 0.5225833097223052
vn -0.8384866776837866 0.15442401285579546 0.5225833097223052
vn -0.8770350115065377 0.44736387801557587 -0.17514322492917672
vn -0.8770350115065377 0.44736387801557587 -0.17514322492917672
vn -0.8770350115065377 0.44736387801557587 -0.17514322492917672
vn -0.8770350115065377 0.44736387801557587 -0.17514322492917672
vn -0.8806575395073356 -0.4737534148783371 0
vn -0.8806575395073356 -0.4737534148783371 0
vn -0.8806575395073356 -0.4737534148783371 0
vn -0.8806575395073356 -0.4737534148783371 0
vn -0.8785527452059696 0.477645343210896 0
vn -0.8785527452059696 0.477645343210896 0
vn -0.8785527452059696 0.477645343210896 0
vn -0.8785527452059696 0.477645343210896 0
vn -0.7549567671549342 -0.38249500840724626 0.5326704875159792
vn -0.7549567671549342 -0.38249500840724626 0.5326704875159792
vn -0.7549567671549342 -0.38249500840724626 0.5326704875159792
vn -0.683048427598998 0.23930221813344466 0.6900574569924954
vn -0.683048427598998 0.23930221813344466 0.6900574569924954
vn -0.683048427598998 0.23930221813344466 0.6900574569924954
vn -0.8310648699170087 0.5306534703443924 0.16654751994934844
vn -0.8310648699170087 0.5306534703443924 0.16654751994934844
vn -0.8310648699170087 0.5306534703443924 0.16654751994934844
vn -0.8310648699170087 0.5306534703443924 0.16654751994934844
vn -0.8354391153101524 -0.019108922460072002 0.5492507020407029
vn -0.8354391153101524 -0.019108922460072002 0.5492507020407029
vn -0.8354391153101524 -0.019108922460072002 0.5492507020407029
vn -0.8354391153101524 -0.019108922460072002 0.5492507020407029
vn -0.7527228847727993 -0.6583374960757707 0
vn -0.7527228847727993 -0.6583374960757707 0
vn -0.7527228847727993 -0.6583374960757707 0
vn -0.7527228847727993 -0.6583374960757707 0
vn -0.5442227088016608 -0.5370750390582789 0.6444936350695256
vn -0.5442227088016608 -0.5370750390582789 0.6444936350695256
vn -0.5442227088016608 -0.5370750390582789 0.6444936350695256
vn -0.9964115900323671 0.08464008063069306 0
vn -0.9964115900323671 0.08464008063069306 0
vn -0.9964115900323671 0.08464008063069306 0
vn -0.9964115900323671 0.08464008063069306 0
vn -0.6210679955693745 0.06095623546229675 0.7813826733667086
vn -0.6210679955693745 0.06095623546229675 0.7813826733667086
vn -0.6210679955693745 0.06095623546229675 0.7813826733667086
vn -0.7969945678271068 -0.20831735455925265 0.5669246322426977
vn -0.7969945678271068 -0.20831735455925265 0.5669246322426977
vn -0.7969945678271068 -0.20831735455925265 0.5669246322426977
vn -0.7969945678271068 -0.20831735455925265 0.5669246322426977
vn -0.7745050372487408 0.21895185623530708 0.5934661169160712
vn -0.7745050372487408 0.21895185623530708 0.5934661169160712
vn -0.7745050372487408 0.21895185623530708 0.5934661169160712
vn -0.7745050372487408 0.21895185623530708 0.5934661169160712
vn -0.345096882070032 0.9344950803684277 0.08733319387694616
vn -0.345096882070032 0.9344950803684277 0.08733319387694616
vn -0.345096882070032 0.9344950803684277 0.08733319387694616
vn -0.345096882070032 0.9344950803684277 0.08733319387694616
vn -0.34359845437784947 0.7446051818399575 0.5722789750866589
vn -0.34359845437784947 0.7446051818399575 0.5722789750866589
vn -0.34359845437784947 0.7446051818399575 0.5722789750866589
vn -0.34359845437784947 0.7446051818399575 0.5722789750866589
vn -0.12318208085984936 0.06066694491718472 0.9905279888773729
vn -0.12318208085984936 0.06066694491718472 0.9905279888773729
vn -0.12318208085984936 0.06066694491718472 0.9905279888773729
vn -0.12318208085984936 0.06066694491718472 0.9905279888773729
vn -0.12318208085984936 0.06066694491718472 0.9905279888773729
vn -0.3031151860389582 -0.4270416455404527 0.8519135032188832
vn -0.3031151860389582 -0.4270416455404527 0.8519135032188832
vn -0.3031151860389582 -0.4270416455404527 0.8519135032188832
vn -0.3031151860389582 -0.4270416455404527 0.8519135032188832
vn -0.3012920076351748 -0.2876405767821159 0.9091127678806504
vn -0.3012920076351748 -0.2876405767821159 0.9091127678806504
vn -0.3012920076351748 -0.2876405767821159 0.9091127678806504
vn -0.3012920076351748 -0.2876405767821159 0.9091127678806504
vn -0.176387055806204 -0.09301897090782596 0.9799158523032824
vn -0.176387055806204 -0.09301897090782596 0.9799158523032824
vn -0.176387055806204 -0.09301897090782596 0.9799158523032824
vn -0.176387055806204 -0.09301897090782596 0.9799158523032824
vn -0.5326728779597152 -0.8463212186198066 0
vn -0.5326728779597152 -0.8463212186198066 0
vn -0.5326728779597152 -0.8463212186198066 0
vn -0.5326728779597152 -0.8463212186198066 0
vn -0.4143772177196022 -0.807981262800224 0.4188768320147544
vn -0.4143772177196022 -0.807981262800224 0.4188768320147544
vn -0.4143772177196022 -0.807981262800224 0.4188768320147544
vn -0.05760042589258424 -0.9952581857160313 0.07837942779981524
vn -0.05760042589258424 -0.9952581857160313 0.07837942779981524
vn -0.05760042589258424 -0.9952581857160313 0.07837942779981524
vn -0.05760042589258424 -0.9952581857160313 0.07837942779981524
vn -0.07820350146489104 -0.9296348946294533 0.360087732429079
vn -0.07820350146489104 -0.9296348946294533 0.360087732429079
vn -0.07820350146489104 -0.9296348946294533 0.360087732429079
vn -0.07820350146489104 -0.9296348946294533 0.360087732429079
vn 0.39150443785314887 0.893578889546225 0.21963843766204794
vn 0.39150443785314887 0.893578889546225 0.21963843766204794
vn 0.39150443785314887 0.893578889546225 0.21963843766204794
vn 0.39150443785314887 0.893578889546225 0.21963843766204794
vn 0.5324891719286725 0.6057326099383097 0.5912218594030842
vn 0.5324891719286725 0.6057326099383097 0.5912218594030842
vn 0.5324891719286725 0.6057326099383097 0.5912218594030842
vn 0.5324891719286725 0.6057326099383097 0.5912218594030842
vn 0.42019260329076485 0.04793142200374645 0.9061681714364219
vn 0.42019260329076485 0.04793142200374645 0.9061681714364219
vn 0.42019260329076485 0.04793142200374645 0.9061681714364219
vn 0.41955527477157073 0.04888438039199361 0.90641253784634
vn 0.41955527477157073 0.04888438039199361 0.90641253784634
vn 0.41955527477157073 0.04888438039199361 0.90641253784634
vn 0.22152547229711297 -0.48195158763948015 0.8477317572766314
vn 0.22152547229711297 -0.48195158763948015 0.8477317572766314
vn 0.22152547229711297 -0.48195158763948015 0.8477317572766314
vn 0.22152547229711297 -0.48195158763948015 0.8477317572766314
vn 0.4118460136319753 -0.2740430247539968 0.8690703548270019
vn 0.4118460136319753 -0.2740430247539968 0.8690703548270019
vn 0.4118460136319753 -0.2740430247539968 0.8690703548270019
vn 0.4118460136319753 -0.2740430247539968 0.8690703548270019
vn 0.3539138181991052 -0.4177828482712033 0.8367810352643823
vn 0.3539138181991052 -0.4177828482712033 0.8367810352643823
vn 0.3539138181991052 -0.4177828482712033 0.8367810352643823
vn 0.3539138181991052 -0.4177828482712033 0.8367810352643823
vn 0.12513968384915858 -0.7545674465201097 0.6441801209120429
vn 0.12513968384915858 -0.7545674465201097 0.6441801209120429
vn 0.12513968384915858 -0.7545674465201097 0.6441801209120429
vn 0.12513968384915858 -0.7545674465201097 0.6441801209120429
vn 0.19275769397999049 -0.981145372086782 0.014079426274050542
vn 0.19275769397999049 -0.981145372086782 0.014079426274050542
vn 0.19275769397999049 -0.981145372086782 0.014079426274050542
vn 0.19275769397999049 -0.981145372086782 0.014079426274050542
vn 0.13542756113082358 -0.9401356352138764 0.31273689115158426
vn 0.13542756113082358 -0.9401356352138764 0.31273689115158426
vn 0.13542756113082358 -0.9401356352138764 0.31273689115158426
vn 0.13542756113082358 -0.9401356352138764 0.31273689115158426
vn 0.9601242293288664 0.21036077490326593 0.18414616107252374
vn 0.9601242293288664 0.21036077490326593 0.18414616107252374
vn 0.9601242293288664 0.21036077490326593 0.18414616107252374
vn 0.9601242293288664 0.21036077490326593 0.18414616107252374
vn 0.9601242293288664 0.21036077490326593 0.18414616107252374
vn 0.896765106317813 -0.3312717353909767 0.2933792450427468
vn 0.896765106317813 -0.3312717353909767 0.2933792450427468
vn 0.896765106317813 -0.3312717353909767 0.2933792450427468
vn 0.896765106317813 -0.3312717353909767 0.2933792450427468
vn 0.8916360543358736 0.3471860810650848 0.29059761135120055
vn 0.8916360543358736 0.3471860810650848 0.29059761135120055
vn 0.8916360543358736 0.3471860810650848 0.29059761135120055
vn 0.8916360543358736 0.3471860810650848 0.29059761135120055
vn -0.7730170309461191 -0.19219232650862608 0.604571566895474
vn -0.7730170309461191 -0.19219232650862608 0.604571566895474
vn -0.7730170309461191 -0.19219232650862608 0.604571566895474
vn -0.7730170309461191 -0.19219232650862608 0.604571566895474
vn -0.967508606264706 -0.25281205569575627 0.0036278504120200107
vn -0.967508606264706 -0.25281205569575627 0.0036278504120200107
vn -0.967508606264706 -0.25281205569575627 0.0036278504120200107
vn -0.967508606264706 -0.25281205569575627 0.0036278504120200107
vn -0.638879609377714 -0.15185247651414704 0.7541708494087398
vn -0.638879609377714 -0.15185247651414704 0.7541708494087398
vn -0.638879609377714 -0.15185247651414704 0.7541708494087398
vn -0.638879609377714 -0.15185247651414704 0.7541708494087398
vn -0.44052752050139116 -0.07776089616060622 0.8943649963573015
vn -0.44052752050139116 -0.07776089616060622 0.8943649963573015
vn -0.44052752050139116 -0.07776089616060622 0.8943649963573015
vn -0.44052752050139116 -0.07776089616060622 0.8943649963573015
vn 0.15044221437724217 0.13446401198807809 0.9794317585280466
vn 0.15044221437724217 0.13446401198807809 0.9794317585280466
vn 0.15044221437724217 0.13446401198807809 0.9794317585280466
vn 0.15044221437724217 0.13446401198807809 0.9794317585280466
vn 0.12446496139544844 0.12562386942815548 0.9842393595130847
vn 0.12446496139544844 0.12562386942815548 0.9842393595130847
vn 0.12446496139544844 0.12562386942815548 0.9842393595130847
vn 0.12446496139544844 0.12562386942815548 0.9842393595130847
vn -0.8612023242715794 0.50826229121311 1.7091422456331236e-7
vn -0.8612023242715794 0.50826229121311 1.7091422456331236e-7
vn -0.8612023242715794 0.50826229121311 1.7091422456331236e-7
vn -0.8612023242715794 0.50826229121311 1.7091422456331236e-7
vn -0.969548678995528 -0.24489867100092583 -8.235248374527783e-8
vn -0.969548678995528 -0.24489867100092583 -8.235248374527783e-8
vn -0.969548678995528 -0.24489867100092583 -8.235248374527783e-8
vn -0.969548678995528 -0.24489867100092583 -8.235248374527783e-8
vn -0.9324060187035209 0.3614125292314166 0
vn -0.9324060187035209 0.3614125292314166 0
vn -0.9324060187035209 0.3614125292314166 0
vn -0.9324060187035209 0.3614125292314166 0
vn -0.8723156460063674 -0.4889431600221784 1.4386552051562644e-7
vn -0.8723156460063674 -0.4889431600221784 1.4386552051562644e-7
vn -0.8723156460063674 -0.4889431600221784 1.4386552051562644e-7
vn -0.28812057239453126 -0.9575854692619181 -0.0040749014073922125
vn -0.28812057239453126 -0.9575854692619181 -0.0040749014073922125
vn -0.28812057239453126 -0.9575854692619181 -0.0040749014073922125
vn -0.408873592164234 -0.516619449348647 -0.7522810180945791
vn -0.408873592164234 -0.516619449348647 -0.7522810180945791
vn -0.408873592164234 -0.516619449348647 -0.7522810180945791
vn -0.408873592164234 -0.516619449348647 -0.7522810180945791
vn -0.3034741869450781 0.17910364216747618 -0.935855385847818
vn -0.3034741869450781 0.17910364216747618 -0.935855385847818
vn -0.3034741869450781 0.17910364216747618 -0.935855385847818
vn -0.3034741869450781 0.17910364216747618 -0.935855385847818
vn -0.7894948115204665 -0.34880113558914094 -0.5050106042391475
vn -0.7894948115204665 -0.34880113558914094 -0.5050106042391475
vn -0.7894948115204665 -0.34880113558914094 -0.5050106042391475
vn -0.7894948115204665 -0.34880113558914094 -0.5050106042391475
vn -0.7894948115204665 -0.34880113558914094 -0.5050106042391475
vn -0.8408013640757694 0.16523406024557497 -0.5155102050426228
vn -0.8408013640757694 0.16523406024557497 -0.5155102050426228
vn -0.8408013640757694 0.16523406024557497 -0.5155102050426228
vn -0.8408013640757694 0.16523406024557497 -0.5155102050426228
vn -0.8478807290355267 0.47677517383918855 0.23191313662834045
vn -0.8478807290355267 0.47677517383918855 0.23191313662834045
vn -0.8478807290355267 0.47677517383918855 0.23191313662834045
vn -0.8478807290355267 0.47677517383918855 0.23191313662834045
vn -0.831374453563993 -0.5481445108533209 -0.09140083797507412
vn -0.831374453563993 -0.5481445108533209 -0.09140083797507412
vn -0.831374453563993 -0.5481445108533209 -0.09140083797507412
vn -0.831374453563993 -0.5481445108533209 -0.09140083797507412
vn -0.8785527452059696 0.477645343210896 0
vn -0.8785527452059696 0.477645343210896 0
vn -0.8785527452059696 0.477645343210896 0
vn -0.8785527452059696 0.477645343210896 0
vn -0.7549567671549342 -0.38249500840724626 -0.5326704875159792
vn -0.7549567671549342 -0.38249500840724626 -0.5326704875159792
vn -0.7549567671549342 -0.38249500840724626 -0.5326704875159792
vn -0.683048427598998 0.23930221813344466 -0.6900574569924954
vn -0.683048427598998 0.23930221813344466 -0.6900574569924954
vn -0.683048427598998 0.23930221813344466 -0.6900574569924954
vn -0.6019960652892551 0.0777978675002956 -0.7947000875730802
vn -0.6019960652892551 0.0777978675002956 -0.7947000875730802
vn -0.6019960652892551 0.0777978675002956 -0.7947000875730802
vn -0.6019960652892551 0.0777978675002956 -0.7947000875730802
vn -0.8443517229207131 -0.00489773097205353 -0.5357669084892689
vn -0.8443517229207131 -0.00489773097205353 -0.5357669084892689
vn -0.8443517229207131 -0.00489773097205353 -0.5357669084892689
vn -0.8443517229207131 -0.00489773097205353 -0.5357669084892689
vn -0.7527228847727993 -0.6583374960757707 0
vn -0.7527228847727993 -0.6583374960757707 0
vn -0.7527228847727993 -0.6583374960757707 0
vn -0.7527228847727993 -0.6583374960757707 0
vn -0.5442227088016608 -0.5370750390582789 -0.6444936350695256
vn -0.5442227088016608 -0.5370750390582789 -0.6444936350695256
vn -0.5442227088016608 -0.5370750390582789 -0.6444936350695256
vn -0.9964115900323671 0.08464008063069306 0
vn -0.9964115900323671 0.08464008063069306 0
vn -0.9964115900323671 0.08464008063069306 0
vn -0.9964115900323671 0.08464008063069306 0
vn -0.6210679955693745 0.06095623546229675 -0.7813826733667086
vn -0.6210679955693745 0.06095623546229675 -0.7813826733667086
vn -0.6210679955693745 0.06095623546229675 -0.7813826733667086
vn -0.8226264152704923 -0.1433790629990428 -0.5502074383291596
vn -0.8226264152704923 -0.1433790629990428 -0.5502074383291596
vn -0.8226264152704923 -0.1433790629990428 -0.5502074383291596
vn -0.8226264152704923 -0.1433790629990428 -0.5502074383291596
vn -0.7783932533373226 0.21674891881740113 -0.5891721729260696
vn -0.7783932533373226 0.21674891881740113 -0.5891721729260696
vn -0.7783932533373226 0.21674891881740113 -0.5891721729260696
vn -0.7783932533373226 0.21674891881740113 -0.5891721729260696
vn -0.34481654239207077 0.9346599759946758 -0.08667341787658783
vn -0.34481654239207077 0.9346599759946758 -0.08667341787658783
vn -0.34481654239207077 0.9346599759946758 -0.08667341787658783
vn -0.34481654239207077 0.9346599759946758 -0.08667341787658783
vn -0.3436492462515027 0.7446318440031792 -0.5722137821192345
vn -0.3436492462515027 0.7446318440031792 -0.5722137821192345
vn -0.3436492462515027 0.7446318440031792 -0.5722137821192345
vn -0.3436492462515027 0.7446318440031792 -0.5722137821192345
vn -0.5143446308130994 0.07029827659391893 -0.8546974628847691
vn -0.5143446308130994 0.07029827659391893 -0.8546974628847691
vn -0.5143446308130994 0.07029827659391893 -0.8546974628847691
vn -0.5143446308130994 0.07029827659391893 -0.8546974628847691
vn -0.5143446308130994 0.07029827659391893 -0.8546974628847691
vn -0.39750019808715 -0.26787389061209466 -0.8776315691957622
vn -0.39750019808715 -0.26787389061209466 -0.8776315691957622
vn -0.39750019808715 -0.26787389061209466 -0.8776315691957622
vn -0.39750019808715 -0.26787389061209466 -0.8776315691957622
vn -0.27881840384868106 -0.37321341725046125 -0.8848570748202826
vn -0.27881840384868106 -0.37321341725046125 -0.8848570748202826
vn -0.27881840384868106 -0.37321341725046125 -0.8848570748202826
vn -0.27881840384868106 -0.37321341725046125 -0.8848570748202826
vn -0.12397320998656189 -0.20693058739890569 -0.9704691521137453
vn -0.12397320998656189 -0.20693058739890569 -0.9704691521137453
vn -0.12397320998656189 -0.20693058739890569 -0.9704691521137453
vn -0.12397320998656189 -0.20693058739890569 -0.9704691521137453
vn -0.5326728779597152 -0.8463212186198066 0
vn -0.5326728779597152 -0.8463212186198066 0
vn -0.5326728779597152 -0.8463212186198066 0
vn -0.5326728779597152 -0.8463212186198066 0
vn -0.4143772177196022 -0.807981262800224 -0.4188768320147544
vn -0.4143772177196022 -0.807981262800224 -0.4188768320147544
vn -0.4143772177196022 -0.807981262800224 -0.4188768320147544
vn -0.09392201314276288 -0.9955795575679579 0
vn -0.09392201314276288 -0.9955795575679579 0
vn -0.09392201314276288 -0.9955795575679579 0
vn -0.09392201314276288 -0.9955795575679579 0
vn -0.10570546357451714 -0.9171664817056155 -0.38422909807332317
vn -0.10570546357451714 -0.9171664817056155 -0.38422909807332317
vn -0.10570546357451714 -0.9171664817056155 -0.38422909807332317
vn -0.10570546357451714 -0.9171664817056155 -0.38422909807332317
vn 0.4312701349185697 0.8983085413573241 -0.08395138624106012
vn 0.4312701349185697 0.8983085413573241 -0.08395138624106012
vn 0.4312701349185697 0.8983085413573241 -0.08395138624106012
vn 0.4312701349185697 0.8983085413573241 -0.08395138624106012
vn 0.4513976070290921 0.7905595464395643 -0.4138306464022208
vn 0.4513976070290921 0.7905595464395643 -0.4138306464022208
vn 0.4513976070290921 0.7905595464395643 -0.4138306464022208
vn 0.4513976070290921 0.7905595464395643 -0.4138306464022208
vn 0.42019260329076485 0.04793142200374645 -0.9061681714364219
vn 0.42019260329076485 0.04793142200374645 -0.9061681714364219
vn 0.42019260329076485 0.04793142200374645 -0.9061681714364219
vn 0.41955527477157073 0.04888438039199361 -0.90641253784634
vn 0.41955527477157073 0.04888438039199361 -0.90641253784634
vn 0.41955527477157073 0.04888438039199361 -0.90641253784634
vn 0.41576501884365186 -0.22940436092363375 -0.8800642523674944
vn 0.41576501884365186 -0.22940436092363375 -0.8800642523674944
vn 0.41576501884365186 -0.22940436092363375 -0.8800642523674944
vn 0.41576501884365186 -0.22940436092363375 -0.8800642523674944
vn 0.42329371730852483 -0.3600580160496354 -0.831372752720181
vn 0.42329371730852483 -0.3600580160496354 -0.831372752720181
vn 0.42329371730852483 -0.3600580160496354 -0.831372752720181
vn 0.42329371730852483 -0.3600580160496354 -0.831372752720181
vn 0.11893146629226897 -0.5507229037271424 -0.8261716465940451
vn 0.11893146629226897 -0.5507229037271424 -0.8261716465940451
vn 0.11893146629226897 -0.5507229037271424 -0.8261716465940451
vn 0.11893146629226897 -0.5507229037271424 -0.8261716465940451
vn 0.1300127339986737 -0.7527530689455648 -0.645336738603362
vn 0.1300127339986737 -0.7527530689455648 -0.645336738603362
vn 0.1300127339986737 -0.7527530689455648 -0.645336738603362
vn 0.1300127339986737 -0.7527530689455648 -0.645336738603362
vn 0.20692063876920272 -0.9759716395749187 -0.06828768554278379
vn 0.20692063876920272 -0.9759716395749187 -0.06828768554278379
vn 0.20692063876920272 -0.9759716395749187 -0.06828768554278379
vn 0.20692063876920272 -0.9759716395749187 -0.06828768554278379
vn 0.13227743976759132 -0.9382697043257736 -0.3196132676735381
vn 0.13227743976759132 -0.9382697043257736 -0.3196132676735381
vn 0.13227743976759132 -0.9382697043257736 -0.3196132676735381
vn 0.13227743976759132 -0.9382697043257736 -0.3196132676735381
vn 0.9382975810258418 0.10932551455727452 -0.32809386051531236
vn 0.9382975810258418 0.10932551455727452 -0.32809386051531236
vn 0.9382975810258418 0.10932551455727452 -0.32809386051531236
vn 0.9382975810258418 0.10932551455727452 -0.32809386051531236
vn 0.9382975810258418 0.10932551455727452 -0.32809386051531236
vn 0.7850483744298852 -0.433161800015216 -0.4427978148236201
vn 0.7850483744298852 -0.433161800015216 -0.4427978148236201
vn 0.7850483744298852 -0.433161800015216 -0.4427978148236201
vn 0.7850483744298852 -0.433161800015216 -0.4427978148236201
vn 0.8885901452084839 0.3510504020233559 -0.2952476402574719
vn 0.8885901452084839 0.3510504020233559 -0.2952476402574719
vn 0.8885901452084839 0.3510504020233559 -0.2952476402574719
vn 0.8885901452084839 0.3510504020233559 -0.2952476402574719
vn -0.7695740413335745 -0.19222225128886122 -0.6089387498057187
vn -0.7695740413335745 -0.19222225128886122 -0.6089387498057187
vn -0.7695740413335745 -0.19222225128886122 -0.6089387498057187
vn -0.7695740413335745 -0.19222225128886122 -0.6089387498057187
vn -0.966479246861098 -0.25605943931836317 -0.01874643760212493
vn -0.966479246861098 -0.25605943931836317 -0.01874643760212493
vn -0.966479246861098 -0.25605943931836317 -0.01874643760212493
vn -0.966479246861098 -0.25605943931836317 -0.01874643760212493
vn -0.649631080628252 -0.15008380954038922 -0.7452880712822483
vn -0.649631080628252 -0.15008380954038922 -0.7452880712822483
vn -0.649631080628252 -0.15008380954038922 -0.7452880712822483
vn -0.649631080628252 -0.15008380954038922 -0.7452880712822483
vn -0.4117905105489783 -0.07393232564176735 -0.9082745106227585
vn -0.4117905105489783 -0.07393232564176735 -0.9082745106227585
vn -0.4117905105489783 -0.07393232564176735 -0.9082745106227585
vn -0.4117905105489783 -0.07393232564176735 -0.9082745106227585
vn 0.15007327718109464 0.13451978762451328 -0.9794806982343155
vn 0.15007327718109464 0.13451978762451328 -0.9794806982343155
vn 0.15007327718109464 0.13451978762451328 -0.9794806982343155
vn 0.15007327718109464 0.13451978762451328 -0.9794806982343155
vn 0.1305658814731658 0.12456148838419824 -0.983583746412398
vn 0.1305658814731658 0.12456148838419824 -0.983583746412398
vn 0.1305658814731658 0.12456148838419824 -0.983583746412398
vn 0.1305658814731658 0.12456148838419824 -0.983583746412398
f 1//1 2//2 3//3
f 1//1 3//3 4//4
f 5//5 6//6 7//7
f 5//5 7//7 8//8
f 9//9 10//10 11//11
f 9//9 11//11 12//12
f 13//13 14//14 15//15
f 16//16 17//17 18//18
f 19//19 20//20 21//21
f 19//19 21//21 22//22
f 23//23 24//24 25//25
f 23//23 25//25 26//26
f 27//27 28//28 29//29
f 27//27 29//29 30//30
f 27//27 30//30 31//31
f 32//32 33//33 34//34
f 32//32 34//34 35//35
f 36//36 37//37 38//38
f 36//36 38//38 39//39
f 40//40 41//41 42//42
f 40//40 42//42 43//43
f 44//44 45//45 46//46
f 44//44 46//46 47//47
f 48//48 49//49 50//50
f 51//51 52//52 53//53
f 54//54 55//55 56//56
f 54//54 56//56 57//57
f 58//58 59//59 60//60
f 58//58 60//60 61//61
f 62//62 63//63 64//64
f 62//62 64//64 65//65
f 66//66 67//67 68//68
f 69//69 70//70 71//71
f 69//69 71//71 72//72
f 73//73 74//74 75//75
f 76//76 77//77 78//78
f 76//76 78//78 79//79
f 80//80 81//81 82//82
f 80//80 82//82 83//83
f 84//84 85//85 86//86
f 84//84 86//86 87//87
f 88//88 89//89 90//90
f 88//88 90//90 91//91
f 92//92 93//93 94//94
f 92//92 94//94 95//95
f 92//92 95//95 96//96
f 97//97 98//98 99//99
f 97//97 99//99 100//100
f 101//101 102//102 103//103
f 101//101 103//103 104//104
f 105//105 106//106 107//107
f 105//105 107//107 108//108
f 109//109 110//110 111//111
f 109//109 111//111 112//112
f 113//113 114//114 115//115
f 116//116 117//117 118//118
f 116//116 118//118 119//119
f 120//120 121//121 122//122
f 120//120 122//122 123//123
f 124//124 125//125 126//126
f 124//124 126//126 127//127
f 128//128 129//129 130//130
f 128//128 130//130 131//131
f 132//132 133//133 134//134
f 135//135 136//136 137//137
f 138//138 139//139 140//140
f 138//138 140//140 141//141
f 142//142 143//143 144//144
f 142//142 144//144 145//145
f 146//146 147//147 148//148
f 146//146 148//148 149//149
f 150//150 151//151 152//152
f 150//150 152//152 153//153
f 154//154 155//155 156//156
f 154//154 156//156 157//157
f 158//158 159//159 160//160
f 158//158 160//160 161//161
f 162//162 163//163 164//164
f 162//162 164//164 165//165
f 162//162 165//165 166//166
f 167//167 168//168 169//169
f 167//167 169//169 170//170
f 171//171 172//172 173//173
f 171//171 173//173 174//174
f 175//175 176//176 177//177
f 175//175 177//177 178//178
f 179//179 180//180 181//181
f 179//179 181//181 182//182
f 183//183 184//184 185//185
f 183//183 185//185 186//186
f 187//187 188//188 189//189
f 187//187 189//189 190//190
f 191//191 192//192 193//193
f 191//191 193//193 194//194
f 195//195 196//196 197//197
f 195//195 197//197 198//198
f 199//199 200//200 201//201
f 199//199 201//201 202//202
f 203//203 204//204 205//205
f 203//203 205//205 206//206
f 207//207 208//208 209//209
f 207//207 209//209 210//210
f 211//211 212//212 213//213
f 214//214 215//215 216//216
f 217//217 218//218 219//219
f 217//217 219//219 220//220
f 221//221 222//222 223//223
f 221//221 223//223 224//224
f 225//225 226//226 227//227
f 225//225 227//227 228//228
f 225//225 228//228 229//229
f 230//230 231//231 232//232
f 230//230 232//232 233//233
f 234//234 235//235 236//236
f 234//234 236//236 237//237
f 238//238 239//239 240//240
f 238//238 240//240 241//241
f 242//242 243//243 244//244
f 242//242 244//244 245//245
f 246//246 247//247 248//248
f 249//249 250//250 251//251
f 252//252 253//253 254//254
f 252//252 254//254 255//255
f 256//256 257//257 258//258
f 256//256 258//258 259//259
f 260//260 261//261 262//262
f 260//260 262//262 263//263
f 264//264 265//265 266//266
f 267//267 268//268 269//269
f 267//267 269//269 270//270
f 271//271 272//272 273//273
f 274//274 275//275 276//276
f 274//274 276//276 277//277
f 278//278 279//279 280//280
f 278//278 280//280 281//281
f 282//282 283//283 284//284
f 282//282 284//284 285//285
f 286//286 287//287 288//288
f 286//286 288//288 289//289
f 290//290 291//291 292//292
f 290//290 292//292 293//293
f 290//290 293//293 294//294
f 295//295 296//296 297//297
f 295//295 297//297 298//298
f 299//299 300//300 301//301
f 299//299 301//301 302//302
f 303//303 304//304 305//305
f 303//303 305//305 306//306
f 307//307 308//308 309//309
f 307//307 309//309 310//310
f 311//311 312//312 313//313
f 314//314 315//315 316//316
f 314//314 316//316 317//317
f 318//318 319//319 320//320
f 318//318 320//320 321//321
f 322//322 323//323 324//324
f 322//322 324//324 325//325
f 326//326 327//327 328//328
f 326//326 328//328 329//329
f 330//330 331//331 332//332
f 333//333 334//334 335//335
f 336//336 337//337 338//338
f 336//336 338//338 339//339
f 340//340 341//341 342//342
f 340//340 342//342 343//343
f 344//344 345//345 346//346
f 344//344 346//346 347//347
f 348//348 349//349 350//350
f 348//348 350//350 351//351
f 352//352 353//353 354//354
f 352//352 354//354 355//355
f 356//356 357//357 358//358
f 356//356 358//358 359//359
f 360//360 361//361 362//362
f 360//360 362//362 363//363
f 360//360 363//363 364//364
f 365//365 366//366 367//367
f 365//365 367//367 368//368
f 369//369 370//370 371//371
f 369//369 371//371 372//372
f 373//373 374//374 375//375
f 373//373 375//375 376//376
f 377//377 378//378 379//379
f 377//377 379//379 380//380
f 381//381 382//382 383//383
f 381//381 383//383 384//384
f 385//385 386//386 387//387
f 385//385 387//387 388//388
f 389//389 390//390 391//391
f 389//389 391//391 392//392
f 393//393 394//394 395//395
f 393//393 395//395 396//396
